<svg width="28" height="28" viewBox="0 0 28 28" fill="none" xmlns="http://www.w3.org/2000/svg">
<g filter="url(#filter0_d_97_267)">
<path fill-rule="evenodd" clip-rule="evenodd" d="M8.671 20H10.471V17.819H8.671V20ZM7.69 3.175H19.858C20.0589 3.17553 20.2514 3.25556 20.3934 3.3976C20.5354 3.53963 20.6155 3.73213 20.616 3.933V16.143C20.6152 16.3438 20.5351 16.5361 20.3931 16.6781C20.2511 16.8201 20.0588 16.9002 19.858 16.901H7.69C7.48921 16.9002 7.29687 16.8201 7.15489 16.6781C7.0129 16.5361 6.93279 16.3438 6.932 16.143V3.932C6.93253 3.73122 7.01259 3.53883 7.15466 3.39695C7.29672 3.25507 7.48922 3.17526 7.69 3.175ZM10.89 6.72H16.648C16.769 6.72053 16.885 6.76884 16.9706 6.85443C17.0562 6.94002 17.1045 7.05596 17.105 7.177V12.893C17.1045 13.014 17.0562 13.13 16.9706 13.2156C16.885 13.3012 16.769 13.3495 16.648 13.35H10.893C10.772 13.3495 10.656 13.3012 10.5704 13.2156C10.4848 13.13 10.4365 13.014 10.436 12.893V7.178C10.4365 7.05696 10.4848 6.94102 10.5704 6.85543C10.656 6.76984 10.772 6.72153 10.893 6.721L10.89 6.72ZM24 10.68V12.171H21.819V10.68H24ZM24 7.828V9.32H21.819V7.829L24 7.828ZM24 13.528V15.328H21.819V13.528H24ZM24 4.666V6.466H21.819V4.666H24ZM4 10.68V12.171H6.181V10.68H4ZM4 7.829V9.32H6.181V7.829H4ZM4 13.529V15.329H6.181V13.529H4ZM4 4.671V6.471H6.181V4.671H4ZM14.68 0H16.171V2.181H14.68V0ZM11.829 0H13.32V2.181H11.829V0ZM17.529 0H19.329V2.181H17.529V0ZM8.671 0H10.471V2.181H8.671V0ZM14.68 20H16.171V17.819H14.68V20ZM11.829 20H13.32V17.819H11.829V20ZM17.529 20H19.329V17.819H17.529V20Z" fill="#201E1E"/>
</g>
<defs>
<filter id="filter0_d_97_267" x="0" y="0" width="28" height="28" filterUnits="userSpaceOnUse" color-interpolation-filters="sRGB">
<feFlood flood-opacity="0" result="BackgroundImageFix"/>
<feColorMatrix in="SourceAlpha" type="matrix" values="0 0 0 0 0 0 0 0 0 0 0 0 0 0 0 0 0 0 127 0" result="hardAlpha"/>
<feOffset dy="4"/>
<feGaussianBlur stdDeviation="2"/>
<feComposite in2="hardAlpha" operator="out"/>
<feColorMatrix type="matrix" values="0 0 0 0 0 0 0 0 0 0 0 0 0 0 0 0 0 0 0.25 0"/>
<feBlend mode="normal" in2="BackgroundImageFix" result="effect1_dropShadow_97_267"/>
<feBlend mode="normal" in="SourceGraphic" in2="effect1_dropShadow_97_267" result="shape"/>
</filter>
</defs>
</svg>
