<svg width="30" height="30" viewBox="0 0 30 30" fill="none" xmlns="http://www.w3.org/2000/svg">
<g id="Layer_x0020_1">
<path id="Path 3" d="M7.36901 17.683C6.59276 17.9563 5.7657 18.0548 4.94698 17.9713C4.12826 17.8878 3.3381 17.6244 2.63301 17.2C1.86394 16.7222 1.22253 16.0647 0.764006 15.284C0.329425 14.5535 0.07125 13.7318 0.0100065 12.884C-0.0348491 12.3768 0.0208546 11.8657 0.173923 11.3801C0.326992 10.8945 0.574416 10.4438 0.902006 10.054C0.632293 9.64941 0.449253 9.19337 0.364407 8.71459C0.279561 8.2358 0.294746 7.74463 0.409006 7.272C0.589716 6.49785 0.952412 5.77794 1.46701 5.172C1.99831 4.5346 2.66382 4.0224 3.41601 3.672C4.43196 3.18756 5.5846 3.07091 6.67701 3.342C6.9781 2.37424 7.63202 1.55505 8.50901 1.047C9.35934 0.534835 10.3072 0.205818 11.292 0.0810013C12.2836 -0.0615773 13.2929 -0.0212445 14.27 0.200001C15.3518 0.41306 16.3296 0.986187 17.044 1.826C18.0309 1.21792 19.1908 0.952203 20.344 1.07C21.3019 1.14528 22.2369 1.40076 23.1 1.823C23.9371 2.2144 24.673 2.79296 25.251 3.514C25.8091 4.2019 26.0895 5.07376 26.037 5.958C26.7395 6.01602 27.4162 6.24962 28.0048 6.63735C28.5935 7.02508 29.0753 7.5545 29.406 8.177C29.7196 8.75169 29.9128 9.3842 29.974 10.036C30.0384 10.6903 29.9648 11.3509 29.758 11.975C29.4985 12.7342 29.0378 13.4088 28.4252 13.9269C27.8125 14.445 27.0708 14.7872 26.279 14.917C26.3198 15.3691 26.248 15.8244 26.07 16.242C25.8776 16.6939 25.5956 17.1021 25.241 17.442C24.8817 17.7943 24.4621 18.0792 24.002 18.283C23.2019 18.6508 22.291 18.6967 21.458 18.411L22.002 17.083C22.4515 17.224 22.9379 17.1882 23.362 16.983C23.6531 16.8558 23.9187 16.6769 24.146 16.455C24.3625 16.2491 24.535 16.0015 24.653 15.727C24.7311 15.5538 24.7704 15.3657 24.7684 15.1757C24.7663 14.9857 24.7228 14.7985 24.641 14.627L24.179 13.694L25.279 13.617C25.9364 13.6277 26.5809 13.4344 27.1239 13.0637C27.6669 12.693 28.0816 12.1631 28.311 11.547C28.4591 11.1009 28.5122 10.6288 28.467 10.161C28.4231 9.69463 28.2846 9.2421 28.06 8.831C27.7877 8.32664 27.3671 7.91802 26.8551 7.66032C26.3431 7.40263 25.7643 7.30827 25.197 7.39L24.002 7.516L24.389 6.452C24.5153 6.09963 24.547 5.72032 24.481 5.35186C24.4151 4.9834 24.2537 4.63867 24.013 4.352C23.5794 3.81331 23.0284 3.38094 22.402 3.088C21.7231 2.75739 20.9879 2.55789 20.235 2.5C19.7263 2.42772 19.2078 2.47405 18.72 2.63538C18.2322 2.79671 17.7883 3.06867 17.423 3.43L16.564 4.411L16.12 3.211C15.9113 2.77968 15.5999 2.40616 15.2132 2.1232C14.8265 1.84023 14.3763 1.65646 13.902 1.588C13.1184 1.40922 12.3088 1.37533 11.513 1.488C10.75 1.58168 10.0147 1.833 9.35401 2.226C8.97313 2.43242 8.6528 2.73479 8.42477 3.10314C8.19674 3.47149 8.06893 3.89304 8.05401 4.326L8.04701 5.492L6.94701 4.958C6.50258 4.73886 6.01413 4.62372 5.51862 4.6213C5.02311 4.61887 4.53355 4.72922 4.08701 4.944C3.53658 5.20136 3.04968 5.57695 2.66101 6.044C2.29135 6.48084 2.03116 6.99951 1.90201 7.557C1.80953 7.92256 1.81314 8.30582 1.91249 8.66957C2.01184 9.03332 2.20355 9.3652 2.46901 9.633L3.02001 10.19L2.39301 10.669C2.08296 10.9249 1.84186 11.2543 1.69166 11.6272C1.54145 12.0001 1.48691 12.4046 1.53301 12.804C1.57686 13.4383 1.76902 14.0535 2.09401 14.6C2.43126 15.1749 2.90183 15.6602 3.46601 16.015C3.97761 16.3166 4.5494 16.5017 5.14069 16.5572C5.73198 16.6127 6.32823 16.5372 6.88701 16.336L7.36901 17.686V17.683ZM6.64501 12.578C6.71156 12.6445 6.7636 12.724 6.79784 12.8116C6.83208 12.8993 6.84776 12.993 6.84391 13.087C6.84006 13.181 6.81675 13.2731 6.77545 13.3577C6.73416 13.4422 6.67578 13.5172 6.60401 13.578C6.4523 13.7052 6.25883 13.7715 6.06101 13.7643C5.86319 13.7571 5.67507 13.6769 5.53301 13.539C5.11382 13.1249 4.80904 12.6092 4.64834 12.0423C4.48764 11.4754 4.4765 10.8765 4.61601 10.304C4.7917 9.55417 5.1434 8.85695 5.64201 8.27C6.15747 7.64995 6.80352 7.15141 7.53401 6.81C8.1757 6.5021 8.87904 6.34425 9.59077 6.3484C10.3025 6.35256 11.004 6.51862 11.642 6.834C11.7289 6.87282 11.8069 6.92916 11.871 6.99948C11.9352 7.0698 11.9841 7.1526 12.0148 7.24271C12.0455 7.33281 12.0573 7.42827 12.0494 7.52313C12.0415 7.61799 12.0141 7.7102 11.969 7.794C11.8687 7.96505 11.7074 8.09185 11.5175 8.14897C11.3275 8.20609 11.1231 8.18931 10.945 8.102C10.519 7.89119 10.0505 7.78028 9.57524 7.77768C9.09994 7.77508 8.63029 7.88087 8.20201 8.087C7.67548 8.33528 7.21012 8.69651 6.83901 9.145C6.48182 9.56228 6.22918 10.0587 6.10201 10.593C6.01343 10.9424 6.01669 11.3088 6.11148 11.6566C6.20627 12.0044 6.38937 12.3218 6.64301 12.578H6.64501ZM15.337 7.832C15.2037 7.97919 15.0201 8.07111 14.8224 8.08962C14.6247 8.10813 14.4273 8.05189 14.269 7.932C14.1932 7.87545 14.1301 7.80375 14.0836 7.72146C14.037 7.63917 14.0081 7.54809 13.9987 7.45403C13.9893 7.35996 13.9996 7.26497 14.0289 7.17509C14.0582 7.08522 14.1059 7.00243 14.169 6.932C14.6766 6.40302 15.3008 6.0001 15.9919 5.75545C16.683 5.51079 17.4217 5.43119 18.149 5.523C19.0777 5.59541 19.9843 5.84275 20.821 6.252C21.6306 6.63199 22.3425 7.19231 22.902 7.89C23.2769 8.34246 23.5261 8.88555 23.6247 9.46477C23.7234 10.044 23.668 10.639 23.464 11.19C23.3905 11.3733 23.2498 11.5215 23.0706 11.6045C22.8914 11.6874 22.6873 11.6987 22.5 11.636C22.4081 11.6106 22.3224 11.5666 22.2481 11.5069C22.1738 11.4472 22.1125 11.3729 22.068 11.2886C22.0234 11.2044 21.9965 11.1119 21.9889 11.0169C21.9814 10.9218 21.9933 10.8263 22.024 10.736C22.1449 10.3991 22.1753 10.0363 22.1121 9.68393C22.0489 9.33157 21.8944 9.00196 21.664 8.728C21.2465 8.21115 20.7163 7.79659 20.114 7.516C19.4615 7.19743 18.7549 7.00473 18.031 6.948C17.5438 6.87923 17.0472 6.92375 16.58 7.07811C16.1127 7.23247 15.6874 7.49251 15.337 7.838V7.832ZM8.86801 14.16C8.82001 14.078 8.7895 13.987 8.77837 13.8926C8.76725 13.7983 8.77576 13.7026 8.80337 13.6117C8.83098 13.5208 8.8771 13.4366 8.93881 13.3644C9.00053 13.2921 9.07652 13.2335 9.16201 13.192C9.3373 13.0995 9.54107 13.0765 9.73257 13.1276C9.92408 13.1788 10.0892 13.3004 10.195 13.468C10.7083 14.2008 11.0717 15.0278 11.2643 15.9015C11.4569 16.7752 11.4748 17.6783 11.317 18.559C10.9345 19.8928 10.1924 21.0957 9.17201 22.036C8.91201 22.305 8.61901 22.593 8.32801 22.878C7.27329 23.7133 6.4652 24.8193 5.99001 26.078C5.9401 26.2682 5.81852 26.4317 5.65075 26.5342C5.48297 26.6367 5.28202 26.6704 5.09001 26.628C4.99531 26.6125 4.90469 26.5782 4.82356 26.5269C4.74243 26.4757 4.67243 26.4087 4.61775 26.3298C4.56307 26.251 4.52482 26.1619 4.50528 26.068C4.48574 25.974 4.4853 25.8771 4.50401 25.783C4.85701 24.225 6.02901 23.077 7.23501 21.897C7.50101 21.639 7.76901 21.378 8.04901 21.086C8.88663 20.3224 9.50233 19.3467 9.83101 18.262C10.0646 16.8219 9.71879 15.3479 8.86901 14.162L8.86801 14.16ZM17.442 14.16C17.394 14.0779 17.3636 13.9869 17.3525 13.8925C17.3415 13.7981 17.3501 13.7024 17.3778 13.6115C17.4055 13.5206 17.4517 13.4364 17.5135 13.3642C17.5753 13.292 17.6514 13.2334 17.737 13.192C17.9122 13.0998 18.1157 13.0769 18.307 13.1281C18.4983 13.1792 18.6632 13.3006 18.769 13.468C19.2826 14.2006 19.6463 15.0276 19.839 15.9013C20.0317 16.7751 20.0497 17.6783 19.892 18.559C19.5092 19.8927 18.7672 21.0955 17.747 22.036C17.488 22.305 17.194 22.593 16.903 22.877C15.8481 23.7123 15.0397 24.8183 14.564 26.077C14.5141 26.2672 14.3925 26.4307 14.2247 26.5332C14.057 26.6357 13.856 26.6694 13.664 26.627C13.5692 26.6117 13.4786 26.5774 13.3973 26.5262C13.3161 26.475 13.2461 26.4079 13.1914 26.3291C13.1367 26.2502 13.0985 26.1611 13.079 26.0671C13.0595 25.9731 13.0592 25.8761 13.078 25.782C13.431 24.223 14.603 23.075 15.809 21.895C16.075 21.637 16.342 21.376 16.623 21.085C17.4596 20.3199 18.0742 19.3432 18.402 18.258C18.6354 16.8179 18.2896 15.344 17.44 14.158L17.442 14.16ZM13.268 14.16C13.22 14.078 13.1895 13.987 13.1784 13.8926C13.1673 13.7983 13.1758 13.7026 13.2034 13.6117C13.231 13.5208 13.2771 13.4366 13.3388 13.3644C13.4005 13.2921 13.4765 13.2335 13.562 13.192C13.7373 13.0995 13.9411 13.0765 14.1326 13.1276C14.3241 13.1788 14.4892 13.3004 14.595 13.468C15.1084 14.2007 15.4719 15.0277 15.6645 15.9014C15.857 16.7752 15.8749 17.6783 15.717 18.559C15.3348 19.8927 14.5931 21.0956 13.573 22.036C13.314 22.305 13.02 22.593 12.729 22.877C11.017 24.556 9.38701 26.153 11.06 28.938C11.1083 29.0201 11.139 29.1112 11.1504 29.2057C11.1618 29.3003 11.1535 29.3961 11.1261 29.4873C11.0987 29.5785 11.0527 29.663 10.9911 29.7355C10.9295 29.8081 10.8535 29.8672 10.768 29.909C10.5925 30.0021 10.3884 30.0257 10.1964 29.9749C10.0043 29.9241 9.83848 29.8027 9.73201 29.635C7.50701 25.935 9.52001 23.961 11.632 21.892C11.898 21.635 12.164 21.374 12.446 21.082C13.2832 20.3181 13.8988 19.3425 14.228 18.258C14.4612 16.8179 14.1154 15.3441 13.266 14.158L13.268 14.16Z" fill="white"/>
</g>
</svg>
