<svg width="32" height="30" viewBox="0 0 32 30" fill="none" xmlns="http://www.w3.org/2000/svg">
<path d="M11.4377 1H5.28894C2.74202 1 0.677338 2.8804 0.677338 5.2V10.8C0.677338 13.1196 2.74202 15 5.28894 15H11.4377C13.9847 15 16.0493 13.1196 16.0493 10.8V5.2C16.0493 2.8804 13.9847 1 11.4377 1Z" fill="#003D6E"/>
<path d="M11.4377 1.19995H5.28892C2.93537 1.19995 0.945923 2.94785 0.945923 5.19995V10.8C0.945923 13.0521 2.93537 14.8 5.28892 14.8H11.4377C13.7913 14.8 15.7807 13.0521 15.7807 10.8V5.19995C15.7807 2.94785 13.7913 1.19995 11.4377 1.19995Z" stroke="white"/>
<path d="M11.4377 15H5.28894C2.74202 15 0.677338 16.8804 0.677338 19.2V24.8C0.677338 27.1196 2.74202 29 5.28894 29H11.4377C13.9847 29 16.0493 27.1196 16.0493 24.8V19.2C16.0493 16.8804 13.9847 15 11.4377 15Z" fill="#003D6E"/>
<path d="M11.4377 15.2H5.28892C2.93537 15.2 0.945923 16.9478 0.945923 19.2V24.8C0.945923 27.0521 2.93537 28.7999 5.28892 28.7999H11.4377C13.7913 28.7999 15.7807 27.0521 15.7807 24.8V19.2C15.7807 16.9478 13.7913 15.2 11.4377 15.2Z" stroke="white"/>
<path d="M26.8097 1H20.6609C18.114 1 16.0493 2.8804 16.0493 5.2V10.8C16.0493 13.1196 18.114 15 20.6609 15H26.8097C29.3567 15 31.4213 13.1196 31.4213 10.8V5.2C31.4213 2.8804 29.3567 1 26.8097 1Z" fill="#003D6E"/>
<path d="M26.8097 1.19995H20.6609C18.3074 1.19995 16.3179 2.94785 16.3179 5.19995V10.8C16.3179 13.0521 18.3074 14.8 20.6609 14.8H26.8097C29.1633 14.8 31.1527 13.0521 31.1527 10.8V5.19995C31.1527 2.94785 29.1633 1.19995 26.8097 1.19995Z" stroke="white"/>
<path d="M26.8097 15H20.6609C18.114 15 16.0493 16.8804 16.0493 19.2V24.8C16.0493 27.1196 18.114 29 20.6609 29H26.8097C29.3567 29 31.4213 27.1196 31.4213 24.8V19.2C31.4213 16.8804 29.3567 15 26.8097 15Z" fill="#003D6E"/>
<path d="M26.8097 15.2H20.6609C18.3074 15.2 16.3179 16.9478 16.3179 19.2V24.8C16.3179 27.0521 18.3074 28.7999 20.6609 28.7999H26.8097C29.1633 28.7999 31.1527 27.0521 31.1527 24.8V19.2C31.1527 16.9478 29.1633 15.2 26.8097 15.2Z" stroke="white"/>
</svg>
