<svg width="18" height="20" viewBox="0 0 18 20" fill="none" xmlns="http://www.w3.org/2000/svg">
<path d="M2.7 1.25H6.3C7.05605 1.25 7.8 1.95722 7.8 3V7C7.8 8.04278 7.05605 8.75 6.3 8.75H2.7C1.94394 8.75 1.2 8.04278 1.2 7V3C1.2 1.95722 1.94394 1.25 2.7 1.25Z" stroke="#003D6E" stroke-width="1.5"/>
<path d="M2.7 11.25H6.3C7.05605 11.25 7.8 11.9572 7.8 13V17C7.8 18.0428 7.05605 18.75 6.3 18.75H2.7C1.94394 18.75 1.2 18.0428 1.2 17V13C1.2 11.9572 1.94394 11.25 2.7 11.25Z" stroke="#003D6E" stroke-width="1.5"/>
<path d="M11.7 1.25H15.3C16.056 1.25 16.8 1.95722 16.8 3V7C16.8 8.04278 16.056 8.75 15.3 8.75H11.7C10.9439 8.75 10.2 8.04278 10.2 7V3C10.2 1.95722 10.9439 1.25 11.7 1.25Z" stroke="#003D6E" stroke-width="1.5"/>
<path d="M11.7 11.25H15.3C16.056 11.25 16.8 11.9572 16.8 13V17C16.8 18.0428 16.056 18.75 15.3 18.75H11.7C10.9439 18.75 10.2 18.0428 10.2 17V13C10.2 11.9572 10.9439 11.25 11.7 11.25Z" stroke="#003D6E" stroke-width="1.5"/>
</svg>
