<svg width="26" height="29" viewBox="0 0 26 29" fill="none" xmlns="http://www.w3.org/2000/svg">
<path d="M13.01 1.5999H12.99C10.7605 1.62231 8.63121 2.52925 7.07032 4.12128C5.5106 5.71211 4.64602 7.85686 4.6663 10.0845C4.66565 14.3026 3.78088 16.9408 2.95134 18.4918C2.53518 19.27 2.1278 19.7842 1.84032 20.0936C1.69632 20.2486 1.58171 20.3529 1.51018 20.4136C1.4744 20.444 1.44936 20.4635 1.43678 20.4731C1.43279 20.4761 1.43006 20.4781 1.42862 20.4792C1.07213 20.7273 0.916247 21.1778 1.04417 21.5938C1.17323 22.0135 1.56094 22.2999 2 22.2999H24C24.439 22.2999 24.8266 22.0136 24.9557 21.5941C25.0838 21.1782 24.9281 20.7278 24.5718 20.4795C24.5704 20.4784 24.5677 20.4764 24.5637 20.4734C24.5511 20.4638 24.526 20.4442 24.4902 20.4138C24.4186 20.3529 24.304 20.2485 24.1599 20.0934C23.8724 19.7837 23.4649 19.2691 23.0487 18.4907C22.2191 16.9391 21.3343 14.3008 21.3337 10.0844C21.354 7.85681 20.4894 5.7121 18.9297 4.12128C17.3688 2.52925 15.2395 1.62231 13.01 1.5999Z" fill="#003D6E" stroke="white" stroke-width="2" stroke-linecap="round" stroke-linejoin="round"/>
<mask id="path-2-outside-1_97_677" maskUnits="userSpaceOnUse" x="8.09705" y="22.7043" width="9" height="7" fill="black">
<rect fill="white" x="8.09705" y="22.7043" width="9" height="7"/>
<path d="M14.903 25.7043C14.7097 26.0377 14.4321 26.3145 14.0981 26.5068C13.7641 26.6992 13.3855 26.8004 13 26.8004C12.6146 26.8004 12.236 26.6992 11.902 26.5068C11.568 26.3145 11.2904 26.0377 11.097 25.7043"/>
</mask>
<path d="M14.903 25.7043C14.7097 26.0377 14.4321 26.3145 14.0981 26.5068C13.7641 26.6992 13.3855 26.8004 13 26.8004C12.6146 26.8004 12.236 26.6992 11.902 26.5068C11.568 26.3145 11.2904 26.0377 11.097 25.7043" fill="white"/>
<path d="M16.633 26.7079C17.1873 25.7524 16.862 24.5286 15.9066 23.9743C14.9511 23.4201 13.7273 23.7453 13.173 24.7008L16.633 26.7079ZM12.827 24.7008C12.2728 23.7453 11.049 23.4201 10.0935 23.9743C9.13805 24.5286 8.8128 25.7524 9.36705 26.7079L12.827 24.7008ZM13.173 24.7008C13.1555 24.7311 13.1302 24.7563 13.0999 24.7738L15.0963 28.2399C15.7339 27.8727 16.2638 27.3444 16.633 26.7079L13.173 24.7008ZM13.0999 24.7738C13.0695 24.7912 13.0351 24.8004 13 24.8004V28.8004C13.7358 28.8004 14.4587 28.6071 15.0963 28.2399L13.0999 24.7738ZM13 24.8004C12.965 24.8004 12.9306 24.7912 12.9002 24.7738L10.9038 28.2399C11.5414 28.6071 12.2643 28.8004 13 28.8004V24.8004ZM12.9002 24.7738C12.8699 24.7563 12.8446 24.7311 12.827 24.7008L9.36705 26.7079C9.73625 27.3444 10.2662 27.8727 10.9038 28.2399L12.9002 24.7738Z" fill="#003D6E" mask="url(#path-2-outside-1_97_677)"/>
</svg>
