<svg width="23" height="24" viewBox="0 0 23 24" fill="none" xmlns="http://www.w3.org/2000/svg">
<path d="M21.5202 16.8263C21.5185 16.8252 21.5167 16.8241 21.515 16.8229L21.5158 16.8235L21.5174 16.8245L21.5196 16.8259C21.5206 16.8266 21.521 16.8268 21.5206 16.8266L21.5202 16.8263ZM21.5202 16.8263C21.7967 17.0068 21.9229 17.3472 21.8302 17.6647C21.7367 17.9845 21.4435 18.2044 21.1103 18.2044H1.75293C1.41964 18.2044 1.12633 17.9844 1.03296 17.6645C0.940284 17.3469 1.06666 17.0064 1.34331 16.8261L1.35394 16.8187C1.36683 16.8095 1.39063 16.792 1.42383 16.7655C1.49022 16.7126 1.59425 16.6235 1.72383 16.4926C1.9826 16.231 2.34516 15.8004 2.71413 15.1524C3.44927 13.8614 4.22827 11.6748 4.22883 8.18578C4.21099 6.3493 4.9704 4.59115 6.32365 3.29478C7.67629 1.99899 9.51193 1.26858 11.4245 1.25052H11.4387C13.3513 1.26858 15.1869 1.99899 16.5395 3.29478C17.8928 4.59115 18.6522 6.34929 18.6344 8.18576C18.6349 11.6734 19.4139 13.86 20.1491 15.1515C20.5181 15.7997 20.8807 16.2306 21.1395 16.4924C21.2692 16.6235 21.3732 16.7126 21.4396 16.7656C21.4729 16.7922 21.4967 16.8097 21.5096 16.8189L21.5202 16.8263Z" fill="white" stroke="#003E6F" stroke-width="1.5" stroke-linecap="round" stroke-linejoin="round"/>
<mask id="path-2-outside-1_119_8" maskUnits="userSpaceOnUse" x="7.75726" y="19.0944" width="7" height="5" fill="black">
<rect fill="white" x="7.75726" y="19.0944" width="7" height="5"/>
<path d="M13.1061 21.0944C12.9359 21.3699 12.6917 21.5986 12.3978 21.7575C12.104 21.9165 11.7708 22.0002 11.4317 22.0002C11.0926 22.0002 10.7594 21.9165 10.4655 21.7575C10.1717 21.5986 9.92742 21.3699 9.75726 21.0944"/>
</mask>
<path d="M13.1061 21.0944C12.9359 21.3699 12.6917 21.5986 12.3978 21.7575C12.104 21.9165 11.7708 22.0002 11.4317 22.0002C11.0926 22.0002 10.7594 21.9165 10.4655 21.7575C10.1717 21.5986 9.92742 21.3699 9.75726 21.0944" fill="white"/>
<path d="M14.3823 21.8826C14.8176 21.1777 14.5991 20.2535 13.8943 19.8181C13.1895 19.3828 12.2652 19.6013 11.8299 20.3062L14.3823 21.8826ZM11.0335 20.3062C10.5982 19.6013 9.67389 19.3828 8.96905 19.8181C8.26422 20.2535 8.04573 21.1777 8.48105 21.8826L11.0335 20.3062ZM11.8299 20.3062C11.802 20.3512 11.7549 20.3999 11.6841 20.4382L13.1116 23.0769C13.6285 22.7972 14.0698 22.3885 14.3823 21.8826L11.8299 20.3062ZM11.6841 20.4382C11.6128 20.4768 11.5255 20.5002 11.4317 20.5002V23.5002C12.0161 23.5002 12.5951 23.3563 13.1116 23.0769L11.6841 20.4382ZM11.4317 20.5002C11.3379 20.5002 11.2505 20.4768 11.1793 20.4382L9.75179 23.0769C10.2683 23.3563 10.8472 23.5002 11.4317 23.5002V20.5002ZM11.1793 20.4382C11.1084 20.3999 11.0613 20.3512 11.0335 20.3062L8.48105 21.8826C8.79354 22.3885 9.23488 22.7972 9.75179 23.0769L11.1793 20.4382Z" fill="#003E6F" mask="url(#path-2-outside-1_119_8)"/>
</svg>
