<svg width="19" height="19" viewBox="0 0 19 19" fill="none" xmlns="http://www.w3.org/2000/svg">
<g id="shield-checkmark-line-icon">
<path id="Path 5" fill-rule="evenodd" clip-rule="evenodd" d="M9.467 0C13.01 2.043 16.21 3.01 18.957 2.782C19.437 11.61 15.853 16.824 9.499 19C3.372 16.963 -0.254997 11.974 0.0140031 2.648C3.37691 2.88993 6.71915 1.95369 9.467 0ZM5.741 10.325C5.69404 10.2905 5.65498 10.2464 5.62645 10.1956C5.59791 10.1449 5.58055 10.0886 5.57553 10.0305C5.57051 9.97248 5.57795 9.91404 5.59735 9.8591C5.61675 9.80417 5.64765 9.75402 5.688 9.712C5.77536 9.62352 5.89194 9.56986 6.01596 9.56103C6.13998 9.55219 6.26299 9.5888 6.362 9.664L8.315 11.191L12.599 6.91C12.689 6.82397 12.8072 6.77359 12.9315 6.76825C13.0559 6.76292 13.178 6.80299 13.275 6.881C13.321 6.91764 13.3585 6.96377 13.3851 7.01623C13.4116 7.06869 13.4265 7.12625 13.4288 7.185C13.4311 7.24375 13.4207 7.3023 13.3983 7.35666C13.3759 7.41102 13.342 7.45991 13.299 7.5L8.711 12.09C8.62298 12.1744 8.50774 12.2245 8.38601 12.2315C8.26429 12.2385 8.14408 12.2018 8.047 12.128L5.742 10.328L5.741 10.325ZM9.471 1.091C12.607 2.9 15.44 3.755 17.871 3.553C18.295 11.368 15.124 15.983 9.503 17.909C4.076 16.106 0.865003 11.69 1.099 3.434C4.07716 3.64966 7.03742 2.82119 9.471 1.091Z" fill="white"/>
</g>
</svg>
