<svg width="19" height="17" viewBox="0 0 19 17" fill="none" xmlns="http://www.w3.org/2000/svg">
<g id="wind-icon">
<path id="Path 4" d="M4.436 12.136C4.187 12.136 3.986 11.836 3.986 11.474C3.986 11.112 4.186 10.812 4.436 10.812H12.379C12.413 10.8111 12.4469 10.8166 12.479 10.828C12.7669 10.8898 13.0368 11.0167 13.268 11.199C13.5563 11.436 13.7827 11.7393 13.928 12.083C14.192 12.6198 14.3365 13.2074 14.3515 13.8055C14.3666 14.4035 14.2517 14.9976 14.015 15.547C13.7834 16.086 13.3778 16.5317 12.863 16.813C12.6421 16.9333 12.3949 16.9969 12.1434 16.9981C11.8919 16.9993 11.644 16.9381 11.422 16.82C10.722 16.443 10.151 15.481 10.068 13.74C10.051 13.376 10.238 13.063 10.485 13.04C10.732 13.017 10.946 13.29 10.963 13.654C11.017 14.777 11.336 15.373 11.727 15.582C11.8588 15.6488 12.005 15.682 12.1528 15.6789C12.3005 15.6758 12.4451 15.6363 12.574 15.564C12.8853 15.3979 13.1318 15.132 13.274 14.809C13.4032 14.4885 13.4617 14.1439 13.4455 13.7987C13.4293 13.4535 13.3387 13.1159 13.18 12.809C13.1055 12.6341 12.9899 12.4797 12.843 12.359C12.7006 12.2486 12.5352 12.1717 12.359 12.134H4.436V12.136ZM2.383 6.187C2.134 6.187 1.933 5.887 1.933 5.525C1.933 5.163 2.133 4.863 2.383 4.863H10.3C10.4765 4.82543 10.6423 4.74852 10.785 4.638C10.9319 4.51731 11.0475 4.36294 11.122 4.188C11.2807 3.88105 11.3713 3.54345 11.3875 3.19827C11.4037 2.85309 11.3452 2.50848 11.216 2.188C11.0738 1.86502 10.8273 1.59914 10.516 1.433C10.3871 1.3607 10.2425 1.32124 10.0948 1.3181C9.94703 1.31496 9.80081 1.34824 9.669 1.415C9.279 1.624 8.959 2.215 8.905 3.343C8.888 3.707 8.675 3.982 8.427 3.957C8.179 3.932 8 3.621 8.012 3.257C8.1 1.516 8.665 0.553998 9.367 0.176998C9.58937 0.0599746 9.8371 -0.000592203 10.0884 0.000628443C10.3397 0.00184909 10.5868 0.0648198 10.808 0.183998C11.3223 0.465859 11.7278 0.911433 11.96 1.45C12.1967 1.99936 12.3116 2.59353 12.2965 3.19154C12.2815 3.78956 12.137 4.37721 11.873 4.914C11.7277 5.2577 11.5013 5.56104 11.213 5.798C10.9818 5.98026 10.7119 6.10717 10.424 6.169C10.3916 6.17925 10.3579 6.18464 10.324 6.185H2.383V6.187ZM0.45 9.163C0.201 9.163 0 8.863 0 8.501C0 8.139 0.2 7.839 0.45 7.839H17C17.1819 7.80295 17.3521 7.72245 17.4953 7.60467C17.6386 7.4869 17.7505 7.33551 17.821 7.164C17.9797 6.85705 18.0703 6.51945 18.0865 6.17427C18.1027 5.82909 18.0442 5.48448 17.915 5.164C17.7728 4.84102 17.5263 4.57514 17.215 4.409C17.0861 4.3367 16.9415 4.29724 16.7938 4.2941C16.646 4.29096 16.4998 4.32424 16.368 4.391C15.978 4.6 15.658 5.191 15.604 6.319C15.587 6.683 15.374 6.958 15.126 6.933C14.878 6.908 14.692 6.594 14.709 6.233C14.792 4.492 15.361 3.533 16.063 3.153C16.2854 3.03597 16.5331 2.97541 16.7844 2.97663C17.0357 2.97785 17.2828 3.04082 17.504 3.16C18.0183 3.44186 18.4238 3.88743 18.656 4.426C18.8927 4.97536 19.0076 5.56953 18.9925 6.16754C18.9775 6.76556 18.833 7.35321 18.569 7.89C18.4237 8.2337 18.1973 8.53704 17.909 8.774C17.6778 8.95626 17.4079 9.08317 17.12 9.145C17.0876 9.15525 17.0539 9.16064 17.02 9.161H0.45V9.163Z" fill="white"/>
</g>
</svg>
